<svg viewBox="0 0 267 302" fill="none" xmlns="http://www.w3.org/2000/svg">
  <path d="M15.9339 285.765C13.0886 285.765 10.2861 285.278 7.52713 284.306C4.7855 283.316 2.27645 281.814 1.38012e-06 279.799L5.0959 273.755C7.04461 275.326 8.86349 276.495 10.5538 277.264C12.2441 278.032 14.0973 278.416 16.1157 278.416C17.6504 278.416 18.8312 278.143 19.6592 277.597C20.5041 277.033 20.9262 276.223 20.9262 275.165L20.9262 275.061C20.9262 274.498 20.8399 274.03 20.6678 273.654C20.4602 273.278 20.1239 272.929 19.6592 272.604C19.1416 272.297 18.4171 271.98 17.4863 271.656C16.6926 271.348 15.6497 271.033 14.3569 270.709C14.1835 270.657 14.0114 270.607 13.8389 270.555C11.9764 270.128 10.2777 269.625 8.74296 269.044C7.19051 268.499 5.87995 267.799 4.81129 266.944C3.74137 266.108 2.91333 265.092 2.3272 263.898C1.7584 262.668 1.47422 261.166 1.47422 259.389L1.47422 259.287C1.47422 257.666 1.7749 256.181 2.37922 254.833C3.01737 253.467 3.92194 252.297 5.0959 251.323C6.26817 250.334 7.67346 249.556 9.31176 248.994C10.9327 248.481 12.7173 248.225 14.6669 248.225C17.4259 248.225 19.9518 248.627 22.2448 249.429C24.5732 250.248 26.7118 251.435 28.6605 252.989L24.2112 259.339C22.2803 258.058 20.5638 257.111 19.0633 256.496C17.5464 255.865 16.046 255.549 14.5629 255.549C13.1309 255.549 12.0703 255.831 11.3814 256.394C10.6396 256.94 10.2692 257.657 10.2692 258.545L10.2692 258.647C10.2692 259.279 10.3978 259.792 10.657 260.184C10.8634 260.595 11.2338 260.962 11.7692 261.285C12.3037 261.592 13.0789 261.909 14.0968 262.232C14.7692 262.438 15.563 262.66 16.4769 262.898C16.9252 263.018 17.3996 263.147 17.8995 263.282C19.7954 263.779 21.4772 264.332 22.9434 264.947C24.4261 265.579 25.6753 266.313 26.6936 267.149C27.7458 268.037 28.5218 269.053 29.0221 270.196C29.5224 271.341 29.7723 272.705 29.7723 274.294L29.7723 274.396C29.7723 276.171 29.4361 277.76 28.7637 279.159C28.1256 280.558 27.1939 281.744 25.9692 282.718C24.728 283.709 23.2623 284.458 21.5719 284.972C19.8305 285.5 17.9515 285.765 15.9339 285.765Z" fill="#17479E"></path>
  <path d="M53.7514 285.74C50.8884 285.74 48.2593 285.249 45.8623 284.268C43.4662 283.252 41.3961 281.893 39.655 280.189C37.9647 278.52 36.6364 276.565 35.6718 274.327C34.7232 272.072 34.25 269.672 34.25 267.124L34.25 267.021C34.25 264.438 34.7232 262.029 35.6718 259.791C36.6546 257.554 38.0002 255.575 39.7071 253.853C41.4481 252.115 43.5347 250.747 45.9659 249.748C48.3629 248.75 50.9925 248.251 53.8551 248.251C56.7688 248.251 59.4157 248.75 61.7954 249.748C64.1923 250.747 66.2446 252.097 67.9519 253.802C69.6752 255.506 71.0128 257.469 71.9614 259.687C72.9099 261.926 73.3827 264.336 73.3827 266.918L73.3827 267.021C73.3827 269.569 72.9095 271.97 71.9614 274.225C70.9777 276.446 69.6151 278.433 67.8741 280.189C66.1846 281.893 64.1238 283.252 61.6926 284.268C59.3121 285.249 56.6652 285.74 53.7514 285.74ZM53.8551 278.123C55.3377 278.123 56.7172 277.865 57.9935 277.349C59.2698 276.781 60.3562 275.998 61.2528 274.999C62.2013 274.017 62.9258 272.839 63.4256 271.461C63.9602 270.102 64.2279 268.657 64.2279 267.124L64.2279 267.021C64.2279 265.438 63.9602 263.974 63.4256 262.631C62.908 261.272 62.1671 260.092 61.2008 259.094C60.2522 258.096 59.14 257.305 57.8637 256.719C56.606 256.151 55.2354 255.867 53.7514 255.867C52.2688 255.867 50.8884 256.151 49.6134 256.719C48.3536 257.253 47.2765 258.028 46.3799 259.042C45.4314 260.04 44.6905 261.203 44.1564 262.529C43.621 263.871 43.3545 265.334 43.3545 266.918L43.3545 267.021C43.3545 268.554 43.621 270.015 44.1564 271.409C44.6909 272.753 45.4318 273.932 46.3799 274.948C47.3272 275.963 48.4399 276.747 49.7162 277.297C50.992 277.848 52.3724 278.123 53.8551 278.123Z" fill="#17479E"></path>
  <path d="M77.8863 248.248L77.8613 248.248L77.8613 285.742L98.1519 285.742L98.1519 278.021L86.8631 278.021L86.8631 251.7L77.8863 248.248Z" fill="#17479E"></path>
  <path d="M102.629 285.74L111.632 285.74L111.632 261.451L102.629 257.989L102.629 285.74Z" fill="#17479E"></path>
  <path d="M111.632 248.25L102.629 248.25L102.629 252.853L111.632 256.314L111.632 248.25Z" fill="#17479E"></path>
  <path d="M130.992 285.751L116.109 285.751L116.109 248.24L130.992 248.24C137.049 248.24 141.916 250.039 145.591 253.639C149.336 257.222 151.208 261.632 151.208 266.869C151.208 272.105 149.336 276.7 145.591 280.351C141.916 283.951 137.049 285.751 130.992 285.751ZM130.992 278.077C137.411 278.077 141.001 274.292 141.76 267.023C141.76 260.46 138.171 256.757 130.992 255.913L125.116 255.913L125.116 278.077L130.992 278.077Z" fill="#17479E"></path>
  <path d="M164.687 285.742L155.686 285.742L155.686 248.248L171.257 248.248C180.431 248.248 185.32 252.568 185.924 261.21C185.924 265.599 184.423 268.914 181.423 271.152C178.439 273.407 174.697 274.535 170.197 274.535L165.179 266.968L170.741 266.968C174.552 266.968 176.577 265.134 176.818 261.468C176.818 257.87 174.732 256.019 170.559 255.917L164.687 255.917L164.687 285.742Z" fill="#17479E"></path>
  <path d="M223.502 285.725L213.181 285.725L199.896 266.245L207.241 266.245C210.95 266.245 212.897 264.549 213.087 261.158C213.087 257.715 211.087 255.968 207.086 255.917L199.404 255.917L199.404 285.742L190.402 285.742L190.402 248.248L207.785 248.248C212.648 248.248 216.389 249.556 219.011 252.173C221.133 254.324 222.193 257.14 222.193 260.616C222.193 266.711 219.563 270.593 214.304 272.262L223.502 285.725Z" fill="#17479E"></path>
  <path d="M265.582 257.289C264.636 255.076 263.304 253.12 261.584 251.421C259.884 249.721 257.837 248.374 255.447 247.379C253.074 246.383 250.434 245.885 247.529 245.885C244.675 245.885 242.054 246.383 239.664 247.379C237.24 248.374 235.16 249.739 233.422 251.472C231.721 253.189 230.378 255.163 229.399 257.393C228.454 259.625 227.98 262.027 227.98 264.601L227.98 264.705C227.98 267.245 228.454 269.639 229.399 271.887C230.362 274.118 231.685 276.067 233.371 277.731C234.91 279.236 236.72 280.457 238.773 281.423L244.872 275.334C244.37 275.206 243.878 275.052 243.404 274.848C242.132 274.299 241.023 273.518 240.077 272.506C239.132 271.492 238.391 270.317 237.858 268.978C237.326 267.587 237.059 266.129 237.059 264.601L237.059 264.499C237.059 262.92 237.326 261.461 237.858 260.122C238.391 258.8 239.132 257.641 240.077 256.646C240.97 255.635 242.046 254.862 243.301 254.33C244.574 253.763 245.948 253.48 247.427 253.48C248.905 253.48 250.272 253.763 251.527 254.33C252.8 254.913 253.909 255.703 254.855 256.698C255.818 257.693 256.557 258.87 257.073 260.225C257.604 261.564 257.871 263.023 257.871 264.601L257.871 264.705C257.871 266.233 257.604 267.675 257.073 269.029C256.574 270.403 255.852 271.578 254.906 272.556C254.012 273.552 252.929 274.333 251.657 274.899C251.168 275.097 250.661 275.244 250.143 275.365L256.189 281.401C258.241 280.437 260.027 279.225 261.508 277.73C263.245 275.98 264.603 273.998 265.583 271.784C266.528 269.536 267.001 267.141 267.001 264.601L267.001 264.499C267 261.924 266.527 259.521 265.582 257.289Z" fill="#17479E"></path>
  <path d="M247.53 275.686L259.972 288.105C258.292 286.498 256.434 285.265 254.387 284.435C252.253 283.58 250.032 283.151 247.728 283.151C247.697 283.151 247.664 283.151 247.632 283.151C247.596 283.151 247.557 283.155 247.52 283.158L247.52 283.158C247.518 283.158 247.517 283.158 247.514 283.158C247.512 283.158 247.51 283.158 247.507 283.158L247.507 283.158C247.47 283.155 247.432 283.151 247.396 283.151C247.363 283.151 247.332 283.151 247.3 283.151C244.996 283.151 242.777 283.58 240.642 284.435C238.595 285.265 236.737 286.498 235.055 288.105L247.497 275.686L247.513 275.669L247.53 275.686Z" fill="#E11B22"></path>
  <path d="M35.7334 62.1516C40.8897 50.0888 48.1509 39.4274 57.5236 30.1698C66.7907 20.903 77.9443 13.5653 90.9683 8.13825C103.905 2.71352 118.289 9.90962e-06 134.121 1.06017e-05C149.677 1.12816e-05 163.963 2.71353 176.987 8.13826C190.199 13.5653 201.537 21.0016 211.008 30.4473C220.28 39.8059 227.596 50.5613 232.932 62.7159C238.084 74.8797 240.664 87.9724 240.664 102.003L240.664 102.568C240.664 116.41 238.084 129.457 232.932 141.711C227.686 153.872 220.473 164.492 211.284 173.559C202.897 181.766 193.033 188.421 181.847 193.682L148.602 160.496C151.339 159.799 154.023 158.962 156.605 157.847C163.54 154.856 169.583 150.601 174.737 145.082C179.889 139.559 183.924 133.157 186.828 125.856C189.733 118.278 191.185 110.33 191.185 102.003L191.185 101.448C191.185 92.8398 189.731 84.8873 186.829 77.5932C183.924 70.3862 179.889 64.0715 174.737 58.6468C169.868 53.1349 164.007 48.9212 157.168 46.0242C150.229 42.9345 142.74 41.3931 134.677 41.3931C126.623 41.3931 119.174 42.9345 112.333 46.0242C105.399 49.2034 99.3531 53.5064 94.1991 58.9289C88.9486 64.3536 84.9181 70.767 82.1079 78.1506C79.2127 85.4493 77.7581 93.3994 77.7581 102.003L77.7581 102.568C77.7581 110.894 79.2127 118.755 82.1079 126.136C84.8285 133.625 88.7623 140.025 93.9163 145.36C98.79 150.785 104.693 155.044 111.626 158.129C114.289 159.205 117.055 160.006 119.877 160.668L86.9241 193.561C75.7407 188.31 66.0094 181.702 57.9395 173.557C48.4725 164.02 41.0689 153.218 35.7288 141.151C30.5771 128.898 28.0013 115.844 28.0013 102.001L28.0013 101.446C28.0059 87.4127 30.5817 74.3131 35.7334 62.1516Z" fill="#17479E"></path>
  <path d="M134.098 160.316L66.287 228C75.4461 219.245 85.568 212.524 96.7238 207.998C108.358 203.338 120.463 201.003 133.02 201.003C133.186 201.003 133.365 201.003 133.54 201.003C133.739 201.003 133.951 201.023 134.151 201.037L134.151 201.041C134.165 201.041 134.167 201.041 134.185 201.041C134.194 201.041 134.204 201.041 134.222 201.041L134.222 201.037C134.424 201.023 134.631 201.003 134.829 201.003C135.008 201.003 135.178 201.003 135.35 201.003C147.908 201.003 160.003 203.338 171.637 207.998C182.793 212.524 192.92 219.242 202.088 228L134.277 160.316L134.187 160.222L134.098 160.316Z" fill="#E11B22"></path>
</svg>
